<?xml version="1.0" encoding="utf-8"?>
<!-- Generator: Adobe Illustrator 21.1.0, SVG Export Plug-In . SVG Version: 6.00 Build 0)  -->
<svg version="1.1" id="Capa_1" xmlns="http://www.w3.org/2000/svg" xmlns:xlink="http://www.w3.org/1999/xlink" x="0px" y="0px"
	 viewBox="0 0 512 512" style="enable-background:new 0 0 512 512;" xml:space="preserve">
<style type="text/css">
	.st0{fill:#A0A0A0;}
</style>
<g>
	<path class="st0" d="M466.9,447.5L367,347.7c26.8-30.8,43-71,43-114.9c0-96.7-78.6-175.2-175.2-175.2
		c-96.7,0-175.2,78.6-175.2,175.2S138.2,408,234.8,408c43.9,0,84.1-16.2,114.9-43l99.9,99.9c2.4,2.4,5.6,3.6,8.7,3.6
		s6.3-1.2,8.7-3.6C471.6,460.1,471.6,452.3,466.9,447.5z M84.1,232.7c0-83.1,67.6-150.6,150.6-150.6c83.1,0,150.6,67.6,150.6,150.6
		s-67.5,150.7-150.6,150.7C151.7,383.5,84.1,315.9,84.1,232.7z"/>
</g>
</svg>
